<?xml version="1.0" encoding="UTF-8"?>
<svg id="b" data-name="Layer 2" xmlns="http://www.w3.org/2000/svg" viewBox="0 0 56 96">
  <defs>
    <style>
      .d {
        fill: #99073b;
      }

      .d, .e, .f, .g, .h, .i {
        stroke-width: 0px;
      }

      .e {
        fill: #038282;
      }

      .f {
        fill: #3c4444;
      }

      .g {
        fill: #fff9eb;
      }

      .h {
        fill: #e7b07f;
      }

      .i {
        fill: #0b5959;
      }
    </style>
  </defs>
  <g id="c" data-name="Layer 1">
    <g>
      <path class="g" d="M9.9,35.8c-.8.6.9,14.3.9,14.3l17.2,8.9,17-9s1.5-12.7,0-15.2c-4.5-7.6-25.6-6.6-35.2.9Z"/>
      <path class="d" d="M30,0c1.1,5.1,4.5,9,6.8,13.4,2.9,5.4,6.1,10.6,9,16,.8,1.4,2.8,2.9,1.2,4.8-1.4,1.7-3.1,0-4.6-.1-.5,0-1-.1-1.5-.2-8.6-2.4-17.3-2.4-25.9,0-2.1-.3-4.4,2.3-6,.3-1.9-2.3.9-4.2,1.9-6,4.5-8.3,9.3-16.4,13.9-24.6.6-1.1,1.9-1.9,1.2-3.5h4Z"/>
      <path class="f" d="M43,96h-8c-2.1-1.7-1.9-4.4-2.6-6.7-.7-2.3-1.7-4.8-4.4-4.7-2.7,0-3.7,2.5-4.4,4.8-.7,2.2-1.1,4.4-1.6,6.6h-11c0-1.7-2.1-3.6-.6-5,4.3-4.3,2.3-9.1,1.4-13.8,10.8,1,21.6,1,32.4,0-.7,4.6-2.9,9.1,1.2,13.5,2,2.1-.2,4.2-2.4,5.3Z"/>
      <path class="i" d="M0,63c3.3-1.7,2.9-5.7,5.3-8.2,1.2-1.3,1.9-2.9,3.8-3.5-1.2,7.2-2.5,14.4-2.1,21.7-2.3,0-4.6,0-6.9,0v-10Z"/>
      <path class="i" d="M47,51.4c3.4,2.2,5.2,5.7,6.9,9.2.6,1.2.2,3.1,2.1,3.4v9c-2.3,0-4.6,0-6.9,0,.3-7.3-.8-14.5-2.1-21.7Z"/>
      <path class="h" d="M0,73c2.3,0,4.6,0,6.9,0,0,1.5,1.1,2.3,1.8,3.4-2.7,3.5-5.5,4.5-8.6.6v-4Z"/>
      <path class="h" d="M49.1,73.1c2.3,0,4.6,0,6.9,0v4c-3.1,3.9-6,2.9-8.6-.6.6-1.1,1.8-1.9,1.8-3.4Z"/>
      <path class="e" d="M49.1,73.1c0,1.5-1.1,2.3-1.8,3.4-1.1.2-2.1.5-3.2.8-10.8,1-21.6,1-32.4,0-1.1-.2-2.1-.5-3.2-.8-.7-1.1-1.8-1.9-1.8-3.4-.3-7.3,1-14.5,2.1-21.7.6-1.1.7-3,2.6-1.3,4.1,3.7,9.7,4.9,14.2,8.1,1.6,1.2,2.8,1.3,4.4,0,4.4-3.2,10-4.3,14.1-8.1,1.8-1.7,2,.3,2.7,1.2,1.4,7.2,2.4,14.4,2.1,21.7Z"/>
      <path class="h" d="M15.1,33.8c8.6-2.4,17.3-2.4,25.9,0,0,1.5.2,3,.1,4.4-.2,3.7-2.8,5.5-6,3.8-4.8-2.5-9.3-2.5-14.1,0-3.2,1.7-5.8,0-6-3.8,0-1.5,0-3,.1-4.4Z"/>
    </g>
  </g>
</svg>